<svg width="274" height="228" viewBox="0 0 274 228" fill="none" xmlns="http://www.w3.org/2000/svg">
<path fill-rule="evenodd" clip-rule="evenodd" d="M127 5.84615H0V0H127C137.493 0 146 8.28847 146 18.5128V209.487C146 219.712 137.493 228 127 228H0V222.154H127C134.18 222.154 140 216.483 140 209.487V18.5128C140 11.5172 134.18 5.84615 127 5.84615Z" fill="url(#paint0_linear_5146_218)" fill-opacity="0.7"/>
<path d="M274 114C274 120.627 268.627 126 262 126C255.373 126 250 120.627 250 114C250 107.373 255.373 102 262 102C268.627 102 274 107.373 274 114Z" fill="#3B48D0"/>
<path fill-rule="evenodd" clip-rule="evenodd" d="M175.937 116.5L170 114L175.938 111.5L175.937 113.567L178.636 113.567L178.636 114.433L175.937 114.433L175.937 116.5ZM185.545 114.433L182.091 114.433L182.091 113.567L185.545 113.567L185.545 114.433ZM192.455 114.433L189 114.433L189 113.567L192.455 113.567L192.455 114.433ZM199.364 114.433L195.909 114.433L195.909 113.567L199.364 113.567L199.364 114.433ZM206.273 114.433L202.818 114.433L202.818 113.567L206.273 113.567L206.273 114.433ZM213.182 114.433L209.727 114.433L209.727 113.567L213.182 113.567L213.182 114.433ZM220.091 114.433L216.636 114.433L216.636 113.567L220.091 113.567L220.091 114.433ZM227 114.433L223.545 114.433L223.545 113.567L227 113.567L227 114.433ZM233.909 114.433L230.455 114.433L230.455 113.567L233.909 113.567L233.909 114.433ZM240.818 114.433L237.364 114.433L237.364 113.567L240.818 113.567L240.818 114.433ZM246 114.433L244.273 114.433L244.273 113.567L246 113.567L246 114.433Z" fill="url(#paint1_linear_5146_218)" fill-opacity="0.7"/>
<defs>
<linearGradient id="paint0_linear_5146_218" x1="0" y1="114" x2="143" y2="114" gradientUnits="userSpaceOnUse">
<stop offset="0.081934" stop-color="#15BFFD" stop-opacity="0"/>
<stop offset="0.706057" stop-color="#15BFFD"/>
<stop offset="1" stop-color="#9C37FD"/>
</linearGradient>
<linearGradient id="paint1_linear_5146_218" x1="178.36" y1="111.971" x2="178.599" y2="118.844" gradientUnits="userSpaceOnUse">
<stop stop-color="#15BFFD"/>
<stop offset="1" stop-color="#9C37FD"/>
</linearGradient>
</defs>
</svg>
