<svg width="24" height="22" viewBox="0 0 24 22" fill="none" xmlns="http://www.w3.org/2000/svg">
<path d="M22.6501 13.3902L12.0001 21.1302L1.35014 13.3902C1.20737 13.2852 1.10146 13.1377 1.04758 12.9689C0.993694 12.8001 0.994592 12.6185 1.05014 12.4502L2.27014 8.67021L4.71014 1.16021C4.73381 1.09901 4.77148 1.04421 4.82014 1.00021C4.89938 0.927827 5.00282 0.887695 5.11014 0.887695C5.21746 0.887695 5.32091 0.927827 5.40014 1.00021C5.45153 1.04987 5.48939 1.11182 5.51014 1.18021L7.95014 8.67021H16.0501L18.4901 1.16021C18.5138 1.09901 18.5515 1.04421 18.6001 1.00021C18.6794 0.927827 18.7828 0.887695 18.8901 0.887695C18.9975 0.887695 19.1009 0.927827 19.1801 1.00021C19.2315 1.04987 19.2694 1.11182 19.2901 1.18021L21.7301 8.6902L23.0001 12.4502C23.0507 12.6237 23.0439 12.8088 22.9809 12.9782C22.9178 13.1475 22.8018 13.292 22.6501 13.3902V13.3902Z" stroke="white" stroke-linecap="round" stroke-linejoin="round"/>
</svg>
