<svg width="267" height="228" viewBox="0 0 267 228" fill="none" xmlns="http://www.w3.org/2000/svg">
<path fill-rule="evenodd" clip-rule="evenodd" d="M127 5.84615H0V0H127C137.493 0 146 8.28847 146 18.5128V209.487C146 219.712 137.493 228 127 228H0V222.154H127C134.18 222.154 140 216.483 140 209.487V18.5128C140 11.5172 134.18 5.84615 127 5.84615Z" fill="url(#paint0_linear_5211_224)" fill-opacity="0.7"/>
<path d="M267 114C267 120.627 261.627 126 255 126C248.373 126 243 120.627 243 114C243 107.373 248.373 102 255 102C261.627 102 267 107.373 267 114Z" fill="#3B48D0"/>
<path fill-rule="evenodd" clip-rule="evenodd" d="M168.937 116.5L163 114L168.938 111.5L168.937 113.567H171.636V114.433H168.937V116.5ZM178.545 114.433H175.091V113.567H178.545V114.433ZM185.455 114.433H182V113.567H185.455V114.433ZM192.364 114.433H188.909V113.567H192.364V114.433ZM199.273 114.433H195.818V113.567H199.273V114.433ZM206.182 114.433H202.727V113.567H206.182V114.433ZM213.091 114.433H209.636V113.567H213.091V114.433ZM220 114.433H216.545V113.567H220V114.433ZM226.909 114.433H223.455V113.567H226.909V114.433ZM233.818 114.433H230.364V113.567H233.818V114.433ZM239 114.433H237.273V113.567H239V114.433Z" fill="url(#paint1_linear_5211_224)" fill-opacity="0.7"/>
<defs>
<linearGradient id="paint0_linear_5211_224" x1="0" y1="114" x2="143" y2="114" gradientUnits="userSpaceOnUse">
<stop offset="0.081934" stop-color="#15BFFD" stop-opacity="0"/>
<stop offset="0.706057" stop-color="#15BFFD"/>
<stop offset="1" stop-color="#9C37FD"/>
</linearGradient>
<linearGradient id="paint1_linear_5211_224" x1="171.36" y1="111.971" x2="171.599" y2="118.844" gradientUnits="userSpaceOnUse">
<stop stop-color="#15BFFD"/>
<stop offset="1" stop-color="#9C37FD"/>
</linearGradient>
</defs>
</svg>
