<svg width="29" height="34" viewBox="0 0 29 34" fill="none" xmlns="http://www.w3.org/2000/svg">
<path d="M3.4311 13.3203C3.4311 13.4342 3.4311 13.5236 3.4311 13.605V21.5825C3.42554 21.6652 3.44371 21.7478 3.48359 21.821C3.52348 21.8942 3.58351 21.9553 3.65699 21.9973C6.50155 23.9246 9.31264 25.86 12.1572 27.7629C12.2431 27.8198 12.3325 27.8714 12.4249 27.9174V15.9307C12.609 15.8657 15.6041 15.8657 15.8551 15.9307V27.893C15.989 27.893 16.0308 27.893 16.0977 27.7873C16.9344 27.2181 17.771 26.6651 18.6076 26.0958L24.6063 22.0298C24.941 21.8102 24.874 21.9241 24.874 21.5012V13.3041C25.2501 13.2799 25.6274 13.2799 26.0035 13.3041H28.2791C28.2791 13.4098 28.2791 13.4749 28.2791 13.5643V23.3228C28.2841 23.397 28.268 23.4712 28.2325 23.5371C28.1971 23.6031 28.1438 23.6584 28.0783 23.6969C27.2919 24.2173 26.5222 24.7703 25.7358 25.3233C22.0378 27.8442 18.3148 30.3652 14.6253 32.8861L14.3994 33.0406C14.3324 32.9512 14.2404 32.8861 14.1735 32.7967C14.1052 32.8839 14.0297 32.9655 13.9476 33.0406L13.7635 32.9105L3.89962 26.1609L0.318825 23.7213C0.235974 23.6711 0.1688 23.5999 0.124564 23.5154C0.0803272 23.4308 0.0607107 23.3361 0.0678348 23.2415V13.3447C1.1874 13.2708 2.31053 13.2626 3.4311 13.3203Z" fill="white"/>
<path d="M28.2453 12.4665H24.8402C24.8402 12.377 24.8402 12.312 24.8402 12.2469V11.3849C24.8482 11.322 24.8355 11.2582 24.8039 11.2027C24.7724 11.1472 24.7236 11.1028 24.6646 11.0759C23.8279 10.5067 22.9495 9.92114 22.0961 9.3275L16.0974 5.26146C16.0051 5.20625 15.9158 5.14654 15.8297 5.08255V14.898H12.3995V5.13948L12.1485 5.26959C11.2031 5.90389 10.2828 6.5382 9.32906 7.1725C7.43827 8.4655 5.54747 9.74224 3.67342 11.0352C3.67342 11.0352 3.58139 11.1003 3.53955 11.1166C3.50189 11.1394 3.47167 11.1721 3.45241 11.211C3.43315 11.2499 3.42566 11.2933 3.43079 11.3361V12.1981C3.44312 12.2708 3.44312 12.345 3.43079 12.4177H0.000593679C0.000593679 12.3526 0.000593679 12.2632 0.000593679 12.1981V9.66092C-0.00343231 9.58681 0.0130746 9.513 0.0483924 9.4472C0.0837103 9.38141 0.136545 9.32603 0.201386 9.28684C2.05035 8.04263 3.89931 6.77403 5.74827 5.52169L13.6628 0.130113L13.8636 0C13.9305 0.0894529 13.9975 0.15451 14.0895 0.260227C14.1568 0.167203 14.2324 0.0801236 14.3154 0C14.3572 0 14.4242 0.0650567 14.4744 0.0813208L25.4259 7.56284C26.2625 8.13208 27.0992 8.71759 27.9358 9.28684C28.0171 9.334 28.083 9.40255 28.1259 9.48456C28.1689 9.56658 28.1871 9.65873 28.1784 9.75037C28.1784 10.5636 28.1784 11.3768 28.1784 12.19C28.2159 12.2781 28.2385 12.3714 28.2453 12.4665Z" fill="white"/>
</svg>
