<svg width="199" height="157" viewBox="0 0 199 157" fill="none" xmlns="http://www.w3.org/2000/svg">
<path fill-rule="evenodd" clip-rule="evenodd" d="M1.33517 1.53653C1.33979 1.20278 1.34226 0.871811 1.34227 0.543701L3.34227 0.543747C3.34226 0.881835 3.33972 1.22206 3.33497 1.56425L1.33517 1.53653ZM1.20131 5.55222C1.23345 4.87319 1.2621 4.20259 1.28505 3.5408L3.28384 3.6101C3.26053 4.28254 3.23149 4.96191 3.19907 5.64679L1.20131 5.55222ZM1.05543 8.38644C1.07007 8.11282 1.08464 7.84035 1.09899 7.56964L3.09619 7.6755C3.08172 7.94853 3.06711 8.22168 3.05246 8.49542C3.03112 8.89436 3.00971 9.29456 2.98857 9.69753L0.991318 9.59276C1.01248 9.18939 1.03402 8.78667 1.05543 8.38644ZM0.806915 13.6565C0.830656 12.974 0.859077 12.2954 0.890248 11.6216L2.88811 11.7141C2.85721 12.382 2.82912 13.0528 2.80571 13.726L0.806915 13.6565ZM0.735813 17.7436C0.733573 17.0588 0.739576 16.3764 0.751964 15.6972L2.75163 15.7337C2.73947 16.4003 2.73361 17.0682 2.7358 17.737L0.735813 17.7436ZM0.861413 21.8488C0.819396 21.1628 0.789144 20.4778 0.768825 19.7946L2.76794 19.7352C2.78769 20.3991 2.81704 21.0631 2.85767 21.7265L0.861413 21.8488ZM1.26719 25.9553C1.17145 25.2715 1.09102 24.5873 1.02405 23.9036L3.01453 23.7086C3.07897 24.3666 3.1562 25.0233 3.24787 25.678L1.26719 25.9553ZM2.03514 30.0288C1.87233 29.3538 1.72822 28.677 1.60101 27.9992L3.5667 27.6303C3.68791 28.2762 3.82494 28.9196 3.97938 29.5599L2.03514 30.0288ZM3.23671 34.0128C2.99609 33.357 2.77713 32.698 2.57808 32.0364L4.49328 31.4602C4.6813 32.0851 4.8878 32.7065 5.11432 33.3239L3.23671 34.0128ZM4.91669 37.8312C4.59321 37.2078 4.29337 36.5798 4.01562 35.9479L5.84657 35.1431C6.10736 35.7365 6.38866 36.3256 6.69192 36.91L4.91669 37.8312ZM7.07822 41.4033C6.67449 40.8251 6.29514 40.2414 5.93883 39.6526L7.64992 38.6171C7.98381 39.1689 8.33939 39.7161 8.71796 40.2582L7.07822 41.4033ZM9.68331 44.6678C9.20823 44.1434 8.7571 43.6128 8.32881 43.0764L9.89167 41.8284C10.294 42.3322 10.7182 42.8313 11.1656 43.3251L9.68331 44.6678ZM12.65 47.5802C12.1216 47.117 11.6154 46.6476 11.1306 46.1725L12.5306 44.7441C12.9885 45.193 13.4674 45.6371 13.9683 46.0761L12.65 47.5802ZM15.9052 50.1486C15.3307 49.7396 14.7769 49.3246 14.2432 48.9039L15.4812 47.3331C15.989 47.7333 16.5167 48.1289 17.0652 48.5194L15.9052 50.1486ZM19.3719 52.3922C18.7723 52.0391 18.1912 51.6805 17.628 51.3167L18.7131 49.6367C19.2528 49.9853 19.8105 50.3294 20.3869 50.6689L19.3719 52.3922ZM23.0127 54.3551C22.3815 54.0434 21.7674 53.7267 21.1701 53.4049L22.1184 51.6441C22.6945 51.9544 23.2876 52.2603 23.8981 52.5618L23.0127 54.3551ZM26.7511 56.0548C26.1033 55.7836 25.4711 55.5077 24.8541 55.2273L25.6816 53.4065C26.2799 53.6785 26.8938 53.9463 27.5234 54.2099L26.7511 56.0548ZM30.5676 57.5325C29.912 57.2978 29.2704 57.059 28.6424 56.816L29.364 54.9507C29.9759 55.1874 30.6016 55.4204 31.2416 55.6494L30.5676 57.5325ZM34.4502 58.8212C33.7883 58.6176 33.1391 58.4102 32.5023 58.199L33.1318 56.3007C33.7546 56.5072 34.3899 56.7102 35.0382 56.9096L34.4502 58.8212ZM37.4191 59.685C37.0802 59.5918 36.7443 59.4976 36.4114 59.4026L36.9606 57.4794C37.2871 57.5727 37.6167 57.6651 37.9494 57.7566C38.2668 57.8438 38.5852 57.9307 38.9047 58.0172L38.3821 59.9477C38.0601 59.8605 37.7391 59.773 37.4191 59.685ZM42.291 60.9742C41.6324 60.8063 40.9776 60.6369 40.3267 60.4661L40.8346 58.5316C41.4807 58.7013 42.1309 58.8694 42.7851 59.0362L42.291 60.9742ZM46.1981 61.9437C45.54 61.7847 44.8853 61.6244 44.234 61.4629L44.7156 59.5217C45.3628 59.6822 46.0135 59.8415 46.6678 59.9996L46.1981 61.9437ZM50.1152 62.8674C49.459 62.7163 48.8058 62.5641 48.1555 62.4108L48.6144 60.4642C49.2612 60.6166 49.9111 60.768 50.5641 60.9184L50.1152 62.8674ZM54.0447 63.7529C53.3902 63.6085 52.7381 63.4631 52.0888 63.3169L52.5283 61.3658C53.1747 61.5114 53.8239 61.6561 54.4757 61.7999L54.0447 63.7529ZM57.9843 64.6059C57.3259 64.4659 56.6697 64.3252 56.0159 64.1837L56.4389 62.2289C57.0903 62.3699 57.744 62.5101 58.4001 62.6496L57.9843 64.6059ZM61.929 65.4306C61.2675 65.2945 60.6079 65.1577 59.9505 65.0203L60.3597 63.0626C61.0151 63.1996 61.6726 63.3359 62.3321 63.4717L61.929 65.4306ZM65.8669 66.2298C65.2076 66.0978 64.5499 65.9652 63.8939 65.8321L64.2916 63.8721C64.9458 64.0048 65.6019 64.137 66.2597 64.2688L65.8669 66.2298ZM69.8127 67.0111C69.155 66.8822 68.4986 66.753 67.8437 66.6234L68.2321 64.6615C68.8856 64.7908 69.5406 64.9198 70.1971 65.0484L69.8127 67.0111ZM73.7637 67.778C73.1046 67.6511 72.4465 67.5239 71.7897 67.3965L72.1707 65.4331C72.8265 65.5604 73.4835 65.6873 74.1418 65.814L73.7637 67.778ZM77.7155 68.5336C77.055 68.4081 76.3954 68.2823 75.7367 68.1564L76.1122 66.192C76.7701 66.3178 77.4291 66.4434 78.089 66.5688L77.7155 68.5336ZM80.3659 69.0359C80.1398 68.9931 79.9138 68.9504 79.6879 68.9077L80.0598 66.9425C80.717 67.0669 81.3749 67.1912 82.0336 67.3154L81.6629 69.2807C81.2303 69.1991 80.798 69.1175 80.3659 69.0359ZM85.6134 70.0244L83.6404 69.6533L84.0103 67.6878L85.983 68.0588L85.6134 70.0244ZM89.564 70.7674L87.5887 70.3957L87.9583 68.4302L89.934 68.8019L89.564 70.7674ZM93.5117 71.5127C92.8537 71.388 92.1957 71.2636 91.5377 71.1394L91.9087 69.1741C92.567 69.2984 93.2255 69.4229 93.8839 69.5476L93.5117 71.5127ZM97.4583 72.264C96.801 72.1382 96.1433 72.0127 95.4855 71.8874L95.8594 69.9227C96.5179 70.048 97.1763 70.1737 97.8344 70.2997L97.4583 72.264ZM101.402 73.0245C100.745 72.8968 100.087 72.7695 99.4293 72.6426L99.8079 70.6788C100.467 70.8059 101.126 70.9333 101.784 71.0613L101.402 73.0245ZM105.341 73.7971C104.685 73.6673 104.029 73.538 103.373 73.4092L103.758 71.4466C104.415 71.5756 105.073 71.7052 105.73 71.8353L105.341 73.7971ZM109.278 74.5863C108.624 74.4536 107.968 74.3214 107.312 74.1899L107.705 72.2289C108.363 72.3607 109.02 72.4932 109.676 72.6263L109.278 74.5863ZM113.211 75.3954C112.557 75.2589 111.901 75.1231 111.244 74.988L111.647 73.029C112.306 73.1644 112.963 73.3006 113.62 73.4376L113.211 75.3954ZM117.136 76.2274C116.482 76.0866 115.827 75.9466 115.171 75.8075L115.585 73.8509C116.244 73.9905 116.901 74.131 117.557 74.2723L117.136 76.2274ZM121.049 77.0859C120.4 76.9408 119.749 76.7968 119.096 76.6536L119.525 74.7001C120.18 74.8438 120.833 74.9884 121.485 75.134L121.049 77.0859ZM124.963 77.9782C124.314 77.8273 123.664 77.6776 123.012 77.5289L123.456 75.5789C124.111 75.7282 124.765 75.8787 125.416 76.0303L124.963 77.9782ZM128.866 78.9071C128.218 78.7492 127.567 78.5926 126.913 78.4372L127.376 76.4915C128.033 76.6477 128.687 76.8051 129.339 76.9638L128.866 78.9071ZM132.754 79.8767C132.107 79.7112 131.457 79.5472 130.804 79.3845L131.288 77.4439C131.944 77.6075 132.598 77.7725 133.249 77.939L132.754 79.8767ZM136.623 80.8923C135.982 80.7196 135.339 80.5484 134.692 80.3787L135.2 78.4442C135.85 78.615 136.498 78.7873 137.144 78.9613L136.623 80.8923ZM140.48 81.9628C139.844 81.781 139.204 81.601 138.561 81.4226L139.096 79.4954C139.744 79.6751 140.388 79.8565 141.03 80.0398L140.48 81.9628ZM144.325 83.0961C143.69 82.903 143.051 82.7118 142.409 82.5224L142.974 80.604C143.622 80.7949 144.266 80.9878 144.907 81.1827L144.325 83.0961ZM148.143 84.2973C147.51 84.0912 146.872 83.8873 146.23 83.6855L146.83 81.7776C147.478 81.9814 148.122 82.1873 148.762 82.3955L148.143 84.2973ZM151.929 85.5753C151.301 85.3552 150.667 85.1375 150.028 84.9221L150.668 83.027C151.313 83.2448 151.954 83.4649 152.59 83.6877L151.929 85.5753ZM155.679 86.9404C155.06 86.706 154.435 86.4742 153.806 86.245L154.489 84.3656C155.127 84.5977 155.76 84.8325 156.387 85.0701L155.679 86.9404ZM159.384 88.4046C158.776 88.1539 158.162 87.9061 157.542 87.6611L158.277 85.801C158.906 86.0495 159.529 86.301 160.147 86.5557L159.384 88.4046ZM163.037 89.9819C162.442 89.7124 161.839 89.4463 161.23 89.1832L162.022 87.347C162.642 87.6145 163.255 87.8853 163.861 88.1597L163.037 89.9819ZM166.632 91.6915C166.049 91.3994 165.457 91.111 164.858 90.8261L165.716 89.0198C166.328 89.3103 166.931 89.6047 167.527 89.9029L166.632 91.6915ZM170.146 93.549C169.577 93.2309 168.999 92.9169 168.413 92.6068L169.347 90.8385C169.947 91.1557 170.539 91.4772 171.122 91.8032L170.146 93.549ZM173.555 95.5733C173.005 95.2259 172.445 94.8831 171.876 94.5448L172.896 92.825C173.482 93.1725 174.058 93.5249 174.624 93.8825L173.555 95.5733ZM176.83 97.7866C176.305 97.4065 175.769 97.0316 175.222 96.6617L176.341 95.0044C176.906 95.3862 177.46 95.7736 178.003 96.1669L176.83 97.7866ZM179.936 100.214C179.443 99.7969 178.937 99.3858 178.417 98.9804L179.649 97.4042C180.187 97.8251 180.714 98.2525 181.227 98.6865L179.936 100.214ZM182.827 102.881C182.373 102.422 181.904 101.969 181.42 101.523L182.775 100.053C183.281 100.519 183.772 100.993 184.249 101.474L182.827 102.881ZM184.811 105.04C184.603 104.795 184.39 104.552 184.174 104.31L185.664 102.976C185.892 103.23 186.115 103.486 186.335 103.745C186.556 104.005 186.773 104.264 186.987 104.524L185.442 105.795C185.236 105.543 185.025 105.292 184.811 105.04ZM187.807 108.867C187.435 108.349 187.05 107.83 186.649 107.31L188.234 106.09C188.648 106.628 189.047 107.165 189.432 107.701L187.807 108.867ZM189.957 112.102C189.624 111.559 189.276 111.014 188.913 110.467L190.578 109.36C190.955 109.927 191.316 110.493 191.662 111.057L189.957 112.102ZM191.852 115.477C191.562 114.911 191.258 114.343 190.938 113.772L192.681 112.793C193.014 113.386 193.331 113.977 193.633 114.567L191.852 115.477ZM193.469 118.987C193.227 118.399 192.97 117.809 192.696 117.216L194.513 116.378C194.798 116.997 195.066 117.612 195.319 118.225L193.469 118.987ZM194.79 122.619C194.598 122.012 194.391 121.402 194.168 120.789L196.047 120.105C196.28 120.745 196.496 121.382 196.697 122.015L194.79 122.619ZM195.8 126.351C195.66 125.73 195.505 125.104 195.335 124.474L197.265 123.951C197.443 124.609 197.605 125.262 197.751 125.91L195.8 126.351ZM196.497 130.158C196.408 129.527 196.305 128.889 196.188 128.247L198.155 127.887C198.278 128.557 198.384 129.221 198.477 129.879L196.497 130.158ZM196.889 134.014C196.849 133.377 196.796 132.732 196.73 132.082L198.72 131.88C198.788 132.556 198.843 133.226 198.885 133.887L196.889 134.014ZM196.999 137.894C197.002 137.255 196.996 136.607 196.977 135.952L198.977 135.896C198.996 136.575 199.002 137.244 198.999 137.904L196.999 137.894ZM196.862 141.785C196.903 141.145 196.935 140.495 196.959 139.836L198.958 139.907C198.933 140.586 198.9 141.254 198.858 141.91L196.862 141.785ZM196.529 145.678C196.596 145.043 196.659 144.395 196.716 143.733L198.709 143.905C198.65 144.581 198.586 145.242 198.518 145.888L196.529 145.678ZM196.072 149.587C196.15 148.952 196.23 148.301 196.31 147.632L198.296 147.866C198.216 148.542 198.135 149.198 198.056 149.832L196.072 149.587ZM195.618 153.538C195.678 152.903 195.751 152.241 195.832 151.556L197.818 151.79C197.739 152.467 197.667 153.112 197.609 153.727L195.618 153.538ZM195.447 156.589C195.447 156.255 195.456 155.911 195.471 155.559L197.469 155.646C197.455 155.974 197.447 156.288 197.447 156.589H195.447Z" fill="url(#paint0_linear_111_194)" fill-opacity="0.7"/>
<defs>
<linearGradient id="paint0_linear_111_194" x1="22.5445" y1="15.2325" x2="98.7112" y2="198.312" gradientUnits="userSpaceOnUse">
<stop stop-color="#15BFFD"/>
<stop offset="1" stop-color="#9C37FD"/>
</linearGradient>
</defs>
</svg>
