<svg width="3" height="105" viewBox="0 0 3 105" fill="none" xmlns="http://www.w3.org/2000/svg">
<path fill-rule="evenodd" clip-rule="evenodd" d="M0.797852 1.00377V0H2.79785V1.00377H0.797852ZM0.797852 5.01887V3.01132H2.79785V5.01887H0.797852ZM0.797852 9.03396V7.02641H2.79785V9.03396H0.797852ZM0.797852 13.0491V11.0415H2.79785V13.0491H0.797852ZM0.797852 17.0642V15.0566H2.79785V17.0642H0.797852ZM0.797852 21.0792V19.0717H2.79785V21.0792H0.797852ZM0.797852 25.0943V23.0868H2.79785V25.0943H0.797852ZM0.797852 29.1094V27.1019H2.79785V29.1094H0.797852ZM0.797852 33.1245V31.117H2.79785V33.1245H0.797852ZM0.797852 37.1396V35.1321H2.79785V37.1396H0.797852ZM0.797852 41.1547V39.1472H2.79785V41.1547H0.797852ZM0.797852 45.1698V43.1623H2.79785V45.1698H0.797852ZM0.797852 49.1849V47.1773H2.79785V49.1849H0.797852ZM0.797852 53.2V51.1924H2.79785V53.2H0.797852ZM0.797852 57.2151V55.2075H2.79785V57.2151H0.797852ZM0.797852 61.2302V59.2226H2.79785V61.2302H0.797852ZM0.797852 65.2453V63.2377H2.79785V65.2453H0.797852ZM0.797852 69.2604V67.2528H2.79785V69.2604H0.797852ZM0.797852 73.2754V71.2679H2.79785V73.2754H0.797852ZM0.797852 77.2905V75.283H2.79785V77.2905H0.797852ZM0.797852 81.3056V79.2981H2.79785V81.3056H0.797852ZM0.797852 85.3207V83.3132H2.79785V85.3207H0.797852ZM0.797852 89.3358V87.3283H2.79785V89.3358H0.797852ZM0.797852 93.3509V91.3434H2.79785V93.3509H0.797852ZM0.797852 97.366V95.3584H2.79785V97.366H0.797852ZM0.797852 101.381V99.3735H2.79785V101.381H0.797852ZM0.797852 104.392V103.389H2.79785V104.392H0.797852Z" fill="url(#paint0_linear_111_193)" fill-opacity="0.7"/>
<defs>
<linearGradient id="paint0_linear_111_193" x1="1.01785" y1="9.82667" x2="6.21849" y2="10.0152" gradientUnits="userSpaceOnUse">
<stop stop-color="#15BFFD"/>
<stop offset="1" stop-color="#9C37FD"/>
</linearGradient>
</defs>
</svg>
